<svg width="24" height="24" viewBox="0 0 24 24" fill="none" xmlns="http://www.w3.org/2000/svg">
<path fill-rule="evenodd" clip-rule="evenodd" d="M12 0.857185C11.6308 0.857447 11.2691 0.961393 10.956 1.15719L1.6046 7.3629L1.60288 7.36633C1.29082 7.56302 1.0571 7.86236 0.941958 8.21281C0.826811 8.56325 0.837444 8.94288 0.972026 9.28633C1.22574 9.93604 1.87031 10.3783 2.6486 10.3783H2.80288V17.1532H2.50631C1.45031 17.1532 0.642883 18.024 0.642883 19.0389V21.4732C0.642883 22.488 1.45031 23.3572 2.50631 23.3572H21.4955C22.5497 23.3572 23.3572 22.488 23.3572 21.4732V19.0389C23.3572 18.024 22.5497 17.1532 21.4955 17.1532H21.1972V10.3783H21.3515C22.1297 10.3783 22.7743 9.93604 23.028 9.28804C23.1632 8.94457 23.1743 8.56469 23.0595 8.21389C22.9447 7.86309 22.711 7.56335 22.3989 7.36633L22.3955 7.36461L13.0457 1.1589L13.0115 1.13319C12.7054 0.951582 12.3559 0.856209 12 0.857185ZM18.1989 10.3783H16.0663V17.1532H18.1972L18.1989 10.3783ZM13.0663 10.3783H10.9337V17.1532H13.0663V10.3783ZM7.93374 10.3783H5.80288V17.1532H7.93374V10.3783ZM2.78574 19.296V21.2143H21.2143V19.296H2.78574Z" fill="currentColor" />
</svg>
