<svg width="31" height="30" viewBox="0 0 31 30" fill="none" xmlns="http://www.w3.org/2000/svg">
<g filter="url(#filter0_d_9_32)">
<path d="M7 2.5C6.13805 2.5 5.3114 2.84241 4.7019 3.4519C4.09241 4.0614 3.75 4.88805 3.75 5.75V11.75C3.75 12.1768 3.83406 12.5994 3.99739 12.9937C4.16072 13.388 4.40011 13.7463 4.7019 14.0481C5.3114 14.6576 6.13805 15 7 15H10.5C11.362 15 12.1886 14.6576 12.7981 14.0481C13.4076 13.4386 13.75 12.612 13.75 11.75V5.75C13.75 4.88805 13.4076 4.0614 12.7981 3.4519C12.1886 2.84241 11.362 2.5 10.5 2.5H7ZM7 17.5C6.13805 17.5 5.3114 17.8424 4.7019 18.4519C4.09241 19.0614 3.75 19.888 3.75 20.75V24.25C3.75 25.112 4.09241 25.9386 4.7019 26.5481C5.3114 27.1576 6.13805 27.5 7 27.5H10.5C11.362 27.5 12.1886 27.1576 12.7981 26.5481C13.4076 25.9386 13.75 25.112 13.75 24.25V20.75C13.75 19.888 13.4076 19.0614 12.7981 18.4519C12.1886 17.8424 11.362 17.5 10.5 17.5H7ZM19.5 2.5C18.638 2.5 17.8114 2.84241 17.2019 3.4519C16.5924 4.0614 16.25 4.88805 16.25 5.75V9.25C16.25 10.112 16.5924 10.9386 17.2019 11.5481C17.8114 12.1576 18.638 12.5 19.5 12.5H23C23.4268 12.5 23.8494 12.4159 24.2437 12.2526C24.638 12.0893 24.9963 11.8499 25.2981 11.5481C25.5999 11.2463 25.8393 10.888 26.0026 10.4937C26.1659 10.0994 26.25 9.6768 26.25 9.25V5.75C26.25 5.3232 26.1659 4.90059 26.0026 4.50628C25.8393 4.11197 25.5999 3.75369 25.2981 3.4519C24.9963 3.15011 24.638 2.91072 24.2437 2.74739C23.8494 2.58406 23.4268 2.5 23 2.5H19.5ZM19.5 15C18.638 15 17.8114 15.3424 17.2019 15.9519C16.5924 16.5614 16.25 17.388 16.25 18.25V24.25C16.25 25.112 16.5924 25.9386 17.2019 26.5481C17.8114 27.1576 18.638 27.5 19.5 27.5H23C23.4268 27.5 23.8494 27.4159 24.2437 27.2526C24.638 27.0893 24.9963 26.8499 25.2981 26.5481C25.5999 26.2463 25.8393 25.888 26.0026 25.4937C26.1659 25.0994 26.25 24.6768 26.25 24.25V18.25C26.25 17.8232 26.1659 17.4006 26.0026 17.0063C25.8393 16.612 25.5999 16.2537 25.2981 15.9519C24.9963 15.6501 24.638 15.4107 24.2437 15.2474C23.8494 15.0841 23.4268 15 23 15H19.5Z" fill="currentColor"/>
</g>
<defs>
<filter id="filter0_d_9_32" x="0" y="-2" width="width" height="height" filterUnits="userSpaceOnUse" color-interpolation-filters="sRGB">
<feFlood flood-opacity="0" result="BackgroundImageFix"/>
<feColorMatrix in="SourceAlpha" type="matrix" values="0 0 0 0 0 0 0 0 0 0 0 0 0 0 0 0 0 0 127 0" result="hardAlpha"/>
<feOffset dx="2"/>
<feGaussianBlur stdDeviation="1"/>
<feComposite in2="hardAlpha" operator="out"/>
<feColorMatrix type="matrix" values="0 0 0 0 0 0 0 0 0 0 0 0 0 0 0 0 0 0 0.4 0"/>
<feBlend mode="normal" in2="BackgroundImageFix" result="effect1_dropShadow_9_32"/>
<feBlend mode="normal" in="SourceGraphic" in2="effect1_dropShadow_9_32" result="shape"/>
</filter>
</defs>
</svg>
