<svg width="width" height="height" viewBox="0 0 24 24" fill="none" xmlns="http://www.w3.org/2000/svg">
<path d="M14.0109 1.13953C13.3125 1.15359 12.8109 1.28953 12.4781 1.53328L7.91718 3.97546L5.38124 7.42499C4.84686 8.24999 5.22655 9.84374 6.8953 8.82187L8.72343 6.4125C11.0437 4.4114 15.7781 5.32968 13.5328 9.34687C12.4312 11.6719 12.9469 12.8062 14.3672 13.2844L15.0141 11.1094C16.1344 8.58749 18.225 8.13281 18.1406 6.09843L23.1656 6.45937L23.1187 1.20515L14.0109 1.13953ZM11.475 5.98593C10.6594 5.97187 9.8578 6.30937 9.27655 6.79687L7.44374 9.20624C7.9453 9.60468 8.45155 9.38906 8.95311 8.90624C9.54374 9.20624 10.0031 8.74218 10.3781 7.81406C10.5328 7.18124 10.7625 6.73593 11.475 5.98593ZM7.74374 10.4859C7.72499 10.4859 7.70155 10.4859 7.6828 10.4906C7.52811 10.5234 7.3453 10.6875 7.22343 11.0625C7.09686 11.4375 7.06874 11.9719 7.18124 12.5437C7.29374 13.1109 7.52811 13.5937 7.79061 13.8937C8.04374 14.1891 8.27811 14.2734 8.4328 14.2406C8.59218 14.2125 8.7703 14.0437 8.89218 13.6734C9.01874 13.2984 9.05155 12.7594 8.93905 12.1922C8.82186 11.6203 8.58749 11.1375 8.32968 10.8422C8.10468 10.5797 7.89843 10.4859 7.74374 10.4859ZM11.6156 15.4922C11.2453 15.4969 10.7812 15.6141 10.3266 15.8344C9.80624 16.0922 9.39843 16.4484 9.17811 16.7766C8.9578 17.1 8.93905 17.3437 9.00936 17.4891C9.07968 17.6297 9.28593 17.7656 9.67968 17.7844C10.0734 17.8078 10.6031 17.7 11.1234 17.4422C11.6437 17.1844 12.0516 16.8328 12.2719 16.5047C12.4922 16.1812 12.5109 15.9328 12.4406 15.7922C12.3703 15.6469 12.1641 15.5156 11.7703 15.4969C11.7187 15.4922 11.6719 15.4922 11.6156 15.4922ZM7.04061 19.9734C6.8203 19.9781 6.61874 20.0109 6.44061 20.0625C6.04218 20.1797 5.81249 20.3906 5.73749 20.6391C5.6578 20.8922 5.73749 21.1922 6.00468 21.5156C6.27655 21.8344 6.73124 22.1391 7.29374 22.3078C7.85155 22.4766 8.3953 22.4719 8.79843 22.35C9.20155 22.2328 9.43124 22.0219 9.50624 21.7734C9.58124 21.5203 9.50624 21.2203 9.23436 20.8969C8.96718 20.5781 8.51249 20.2734 7.94999 20.1047C7.63124 20.0109 7.32186 19.9687 7.04061 19.9734Z" fill="currentColor"/>
</svg>
